<svg xmlns="http://www.w3.org/2000/svg" version="1.1" xmlns:xlink="http://www.w3.org/1999/xlink" xmlns:svgjs="http://svgjs.com/svgjs" width="1440" height="560" preserveAspectRatio="none" viewBox="0 0 1440 560">
    <g mask="url(&quot;#SvgjsMask1060&quot;)" fill="none">
        <rect width="1440" height="560" x="0" y="0" fill="#1e3266"></rect>
        <path d="M1536 560L0 560 L0 284.43Q67.9 280.33, 72 348.23Q96.77 301, 144 325.78Q193.87 255.64, 264 305.51Q345.73 267.24, 384 348.96Q390.59 283.55, 456 290.15Q501.13 263.28, 528 308.41Q621.16 281.58, 648 374.74Q673.25 327.99, 720 353.24Q728.53 289.77, 792 298.31Q833.03 267.34, 864 308.37Q956.52 280.89, 984 373.41Q1004.69 274.1, 1104 294.78Q1145.45 264.24, 1176 305.69Q1256.43 266.13, 1296 346.56Q1341.35 271.91, 1416 317.26Q1485.25 266.51, 1536 335.76z" fill="#182f5d"></path>
        <path d="M1488 560L0 560 L0 351.44Q59.1 338.54, 72 397.64Q131.38 385.01, 144 444.39Q158.94 339.33, 264 354.28Q335.02 305.3, 384 376.32Q479.27 351.59, 504 446.86Q534.85 405.71, 576 436.55Q587.42 375.98, 648 387.4Q721.45 340.85, 768 414.29Q815.7 390, 840 437.7Q860.86 338.56, 960 359.42Q1002.56 329.98, 1032 372.54Q1109.55 330.09, 1152 407.64Q1230.57 366.21, 1272 444.78Q1274.3 375.08, 1344 377.38Q1370.62 332, 1416 358.61Q1474.59 345.19, 1488 403.78z" fill="#25467d"></path>
        <path d="M1464 560L0 560 L0 469.24Q37 434.24, 72 471.23Q115.81 443.05, 144 486.86Q173.5 396.36, 264 425.85Q310.36 400.21, 336 446.56Q420.12 410.68, 456 494.79Q498.69 465.48, 528 508.16Q564.51 424.67, 648 461.18Q693.98 435.16, 720 481.15Q754.27 395.42, 840 429.69Q893.63 411.32, 912 464.95Q965.63 446.59, 984 500.22Q1032.86 429.08, 1104 477.93Q1153.34 407.27, 1224 456.61Q1267.04 379.65, 1344 422.69Q1435.65 394.35, 1464 486z" fill="#356cb1"></path>
        <path d="M1464 560L0 560 L0 522.61Q45.1 495.71, 72 540.81Q88.8 485.61, 144 502.4Q187 473.39, 216 516.39Q305.68 486.07, 336 575.74Q364.2 531.94, 408 560.15Q454.24 486.38, 528 532.62Q595.33 479.95, 648 547.29Q695.2 474.49, 768 521.69Q824.03 505.73, 840 561.76Q891.41 493.17, 960 544.58Q978.91 491.5, 1032 510.41Q1098.36 456.76, 1152 523.12Q1196.29 447.41, 1272 491.71Q1314.86 462.56, 1344 505.42Q1440.03 481.45, 1464 577.47z" fill="white"></path>
    </g>
    <defs>
        <mask id="SvgjsMask1060">
            <rect width="1440" height="560" fill="#ffffff"></rect>
        </mask>
    </defs>
</svg>